<svg id="visual" viewBox="0 0 960 540" width="960" height="540" xmlns="http://www.w3.org/2000/svg" xmlns:xlink="http://www.w3.org/1999/xlink" version="1.1"><path d="M0 141L14.5 148.3C29 155.7 58 170.3 87.2 183C116.3 195.7 145.7 206.3 174.8 196.3C204 186.3 233 155.7 262 158.3C291 161 320 197 349 198C378 199 407 165 436.2 141.7C465.3 118.3 494.7 105.7 523.8 109.2C553 112.7 582 132.3 611 129.7C640 127 669 102 698 99.3C727 96.7 756 116.3 785.2 128C814.3 139.7 843.7 143.3 872.8 152.3C902 161.3 931 175.7 945.5 182.8L960 190L960 0L945.5 0C931 0 902 0 872.8 0C843.7 0 814.3 0 785.2 0C756 0 727 0 698 0C669 0 640 0 611 0C582 0 553 0 523.8 0C494.7 0 465.3 0 436.2 0C407 0 378 0 349 0C320 0 291 0 262 0C233 0 204 0 174.8 0C145.7 0 116.3 0 87.2 0C58 0 29 0 14.5 0L0 0Z" fill="#6198ff"></path><path d="M0 260L14.5 262.7C29 265.3 58 270.7 87.2 285.2C116.3 299.7 145.7 323.3 174.8 326.2C204 329 233 311 262 312.7C291 314.3 320 335.7 349 341.8C378 348 407 339 436.2 331.8C465.3 324.7 494.7 319.3 523.8 314C553 308.7 582 303.3 611 298.8C640 294.3 669 290.7 698 291.5C727 292.3 756 297.7 785.2 293.2C814.3 288.7 843.7 274.3 872.8 284.3C902 294.3 931 328.7 945.5 345.8L960 363L960 188L945.5 180.8C931 173.7 902 159.3 872.8 150.3C843.7 141.3 814.3 137.7 785.2 126C756 114.3 727 94.7 698 97.3C669 100 640 125 611 127.7C582 130.3 553 110.7 523.8 107.2C494.7 103.7 465.3 116.3 436.2 139.7C407 163 378 197 349 196C320 195 291 159 262 156.3C233 153.7 204 184.3 174.8 194.3C145.7 204.3 116.3 193.7 87.2 181C58 168.3 29 153.7 14.5 146.3L0 139Z" fill="#3c80ff"></path><path d="M0 363L14.5 364.8C29 366.7 58 370.3 87.2 381.2C116.3 392 145.7 410 174.8 406.3C204 402.7 233 377.3 262 380C291 382.7 320 413.3 349 420.5C378 427.7 407 411.3 436.2 404.2C465.3 397 494.7 399 523.8 405.3C553 411.7 582 422.3 611 417.8C640 413.3 669 393.7 698 387.3C727 381 756 388 785.2 385.2C814.3 382.3 843.7 369.7 872.8 376C902 382.3 931 407.7 945.5 420.3L960 433L960 361L945.5 343.8C931 326.7 902 292.3 872.8 282.3C843.7 272.3 814.3 286.7 785.2 291.2C756 295.7 727 290.3 698 289.5C669 288.7 640 292.3 611 296.8C582 301.3 553 306.7 523.8 312C494.7 317.3 465.3 322.7 436.2 329.8C407 337 378 346 349 339.8C320 333.7 291 312.3 262 310.7C233 309 204 327 174.8 324.2C145.7 321.3 116.3 297.7 87.2 283.2C58 268.7 29 263.3 14.5 260.7L0 258Z" fill="#0066ff"></path><path d="M0 476L14.5 471.5C29 467 58 458 87.2 459.8C116.3 461.7 145.7 474.3 174.8 475.3C204 476.3 233 465.7 262 469.3C291 473 320 491 349 500C378 509 407 509 436.2 507.2C465.3 505.3 494.7 501.7 523.8 495.3C553 489 582 480 611 473.7C640 467.3 669 463.7 698 467.2C727 470.7 756 481.3 785.2 482.2C814.3 483 843.7 474 872.8 474C902 474 931 483 945.5 487.5L960 492L960 431L945.5 418.3C931 405.7 902 380.3 872.8 374C843.7 367.7 814.3 380.3 785.2 383.2C756 386 727 379 698 385.3C669 391.7 640 411.3 611 415.8C582 420.3 553 409.7 523.8 403.3C494.7 397 465.3 395 436.2 402.2C407 409.3 378 425.7 349 418.5C320 411.3 291 380.7 262 378C233 375.3 204 400.7 174.8 404.3C145.7 408 116.3 390 87.2 379.2C58 368.3 29 364.7 14.5 362.8L0 361Z" fill="#0059dd"></path><path d="M0 541L14.5 541C29 541 58 541 87.2 541C116.3 541 145.7 541 174.8 541C204 541 233 541 262 541C291 541 320 541 349 541C378 541 407 541 436.2 541C465.3 541 494.7 541 523.8 541C553 541 582 541 611 541C640 541 669 541 698 541C727 541 756 541 785.2 541C814.3 541 843.7 541 872.8 541C902 541 931 541 945.5 541L960 541L960 490L945.5 485.5C931 481 902 472 872.8 472C843.7 472 814.3 481 785.2 480.2C756 479.3 727 468.7 698 465.2C669 461.7 640 465.3 611 471.7C582 478 553 487 523.8 493.3C494.7 499.7 465.3 503.3 436.2 505.2C407 507 378 507 349 498C320 489 291 471 262 467.3C233 463.7 204 474.3 174.8 473.3C145.7 472.3 116.3 459.7 87.2 457.8C58 456 29 465 14.5 469.5L0 474Z" fill="#004cbb"></path></svg>